# .PCD v0.7 - Point Cloud Data file format
VERSION 0.7
FIELDS x y z
SIZE 4 4 4
TYPE F F F
COUNT 1 1 1
WIDTH 83
HEIGHT 1
VIEWPOINT 0 0 0 1 0 0 0
POINTS 83
DATA ascii
1.3908978 -0.29941863 -0.42824301
1.3920548 -0.28933209 -0.4338181
1.4258847 -0.27836326 -0.44379088
1.4458854 -0.26872757 -0.44608867
1.4429202 -0.26035768 -0.45024788
1.4737247 -0.24517815 -0.44564852
1.4923929 -0.23430598 -0.44302136
1.5091529 -0.22184353 -0.42455518
1.5243462 -0.20819126 -0.41171676
1.5382557 -0.19853619 -0.38711008
1.5455172 -0.18815352 -0.37886396
1.5510243 -0.17723525 -0.36058962
1.5470505 -0.16632393 -0.34742093
1.5470963 -0.15637799 -0.34076956
1.5329665 -0.14488767 -0.29459408
1.5331116 -0.13209869 -0.29479665
1.5124639 -0.12125345 -0.27075604
1.5021393 -0.11049282 -0.25567695
1.4872264 -0.099114932 -0.25457567
1.4824215 -0.086500227 -0.25297782
1.4485176 -0.075900227 -0.24098133
1.4325465 -0.065366857 -0.2477544
1.4216328 -0.057035618 -0.25010863
1.3909888 -0.045695189 -0.26015162
1.3737391 -0.030618915 -0.27775207
1.3657085 -0.01968525 -0.28969592
1.3632561 -0.0080086896 -0.29302278
1.343681 0.0030658722 -0.32525304
1.3505129 0.011481667 -0.32466516
1.3447711 0.02115223 -0.35682446
1.3487854 0.030252151 -0.38005853
1.3555185 0.04049347 -0.38384491
1.3654354 0.051653862 -0.41279021
1.3784912 0.06133648 -0.4257085
1.3829271 0.071301766 -0.42182365
1.4143702 0.081413001 -0.44063181
1.4416032 0.094531097 -0.44560876
1.4468697 0.10608631 -0.446199
1.4794159 0.11836712 -0.44291633
1.4864415 0.13177578 -0.43822175
1.5221006 0.14224984 -0.41275573
1.5307363 0.1534325 -0.41330424
1.5410689 0.16518089 -0.39747888
1.5440756 0.17461666 -0.37056935
1.5431187 0.18473449 -0.37492365
1.5451834 0.19799095 -0.32697964
1.5395408 0.20986657 -0.30822653
1.5380495 0.22165406 -0.28921434
1.5252388 0.23240909 -0.28242925
1.5084705 0.24241227 -0.26705721
1.5030009 0.25280911 -0.26340181
1.4696971 0.26352444 -0.24874632
1.4609079 0.27230996 -0.24762268
1.4498901 0.28436416 -0.24638796
1.4272419 0.29477006 -0.24616931
1.4093428 0.30670616 -0.25283054
1.3955027 0.31667283 -0.2614255
1.3772402 0.32635924 -0.26666415
1.361154 0.33663329 -0.29603952
1.3655553 0.34692398 -0.28990382
1.3510281 0.36045533 -0.32232037
1.3489264 0.37106696 -0.33188406
1.343888 0.38053802 -0.3596715
1.3475993 0.38916856 -0.37586164
1.3666871 0.4011972 -0.40402651
1.3654138 0.41089797 -0.40224826
1.3841659 0.42165366 -0.42842299
1.4030236 0.43465805 -0.43847936
1.4241672 0.44596559 -0.44321978
1.4356923 0.45720536 -0.44494629
1.4421518 0.46684334 -0.44567019
1.4738815 0.47887254 -0.44936073
1.497208 0.4898307 -0.44068861
1.5136502 0.49918374 -0.42496797
1.5273714 0.51056725 -0.4121244
1.5406308 0.52025419 -0.38187262
1.5389986 0.53183293 -0.38547176
1.5470277 0.54080933 -0.35071665
1.5469704 0.55334175 -0.33568063
1.5466404 0.5650059 -0.33407351
1.5453194 0.57470047 -0.30872452
1.5272596 0.5847069 -0.28662434
1.5254444 0.59441668 -0.27615443
