# .PCD v0.7 - Point Cloud Data file format
VERSION 0.7
FIELDS x y z
SIZE 4 4 4
TYPE F F F
COUNT 1 1 1
WIDTH 83
HEIGHT 1
VIEWPOINT 0 0 0 1 0 0 0
POINTS 83
DATA ascii
-2.9439924 5.0581369 -9.5283203
-2.6661325 6.0667906 -10.025315
0.86017823 7.1636748 -9.9601431
2.8368881 8.1272421 -9.578414
2.6790278 8.9642315 -10.064198
5.4789801 10.482185 -8.7000408
7.1806211 11.569402 -7.8885951
8.224411 12.815648 -5.6237555
9.2878342 14.180874 -3.9427619
9.8752375 15.146381 -1.1778841
10.320107 16.184649 -0.17319846
10.296342 17.276476 1.7352573
9.521677 18.367607 2.8719044
9.326211 19.362202 3.5076928
6.5912399 20.511232 7.4874058
6.6111627 21.790131 7.4724417
3.919522 22.874655 9.1451054
2.4817219 23.950718 10.273161
1.026232 25.088507 9.9301653
0.51994157 26.349977 9.9382114
-3.074249 27.409977 10.063839
-4.3940811 28.463314 8.9379892
-5.3643007 29.296438 8.3855534
-7.985393 30.430481 6.5069981
-9.1018848 31.938108 4.3100204
-9.5090218 33.031475 2.9295385
-9.6429672 34.199131 2.5385523
-10.541732 35.306587 -1.1236899
-9.9077797 36.148167 -0.86237109
-9.4892282 37.115223 -4.1022205
-8.4083157 38.025215 -6.1976929
-7.6523519 39.049347 -6.3565555
-5.8368483 40.165386 -8.8194122
-4.2034903 41.133648 -9.6593275
-3.8971059 42.130177 -9.1555166
-0.33298349 43.1413 -10.004766
2.414027 44.45311 -9.6612959
2.9340825 45.608631 -9.5593634
5.939723 46.836712 -8.2684555
6.4687834 48.177578 -7.609612
9.104847 49.224983 -4.1093321
9.9450073 50.34325 -3.9022017
10.455075 51.518089 -2.0823452
9.9334059 52.461666 0.57462692
9.9729567 53.47345 0.13056183
8.7294703 54.799095 4.7655063
7.6278548 55.986656 6.3846474
6.9144154 57.165405 8.1532345
5.4886808 58.24091 8.4155197
3.4275084 59.241226 9.3779278
2.7959738 60.28091 9.5622492
-0.8208437 61.352444 9.9595184
-1.6929188 62.230995 9.8026342
-2.7808886 63.436417 9.5893898
-4.9476595 64.477005 8.9298086
-6.454751 65.670616 7.7567019
-7.5165973 66.667282 6.5211029
-9.1010962 67.635925 5.4727607
-9.7528543 68.66333 2.1876466
-9.5173912 69.692398 2.9051063
-9.9290771 71.045532 -0.62323999
-9.8422098 72.106697 -1.5985695
-9.4879408 73.053802 -4.4003143
-8.6475477 73.916855 -5.8330307
-5.9807701 75.11972 -7.9459333
-6.155653 76.089798 -7.8145776
-3.5806746 77.165367 -9.7477407
-1.4798989 78.465805 -10.140363
0.6791997 79.596558 -9.9572678
1.8303345 80.720535 -9.7757006
2.4681985 81.684334 -9.6506767
5.6054535 82.887253 -9.0494013
7.5698018 83.98307 -7.5214391
8.6657562 84.918373 -5.5280199
9.5886097 86.056725 -3.8907628
9.9444313 87.025421 -0.60697556
9.896883 88.183296 -0.99929714
9.6185293 89.080933 2.5568762
9.1613226 90.334175 3.9892879
9.0815592 91.500587 4.132658
8.1939869 92.470047 6.510766
5.8074694 93.470688 8.0760994
5.3197899 94.441666 9.0201912
